<svg id="Capa_1" data-name="Capa 1" xmlns="http://www.w3.org/2000/svg" viewBox="0 0 42.55 42.55"><defs><style>.cls-1{fill:#76e984;}</style></defs><path class="cls-1" d="M21,33.85l14.7-14.7-3.3-3.3L21,27.25,15.4,21.7,12.15,25ZM24,45.25a20.89,20.89,0,0,1-8.28-1.65A21.17,21.17,0,0,1,4.4,32.28,20.88,20.88,0,0,1,2.75,24,21.06,21.06,0,0,1,9,8.93a21.47,21.47,0,0,1,6.76-4.55A20.57,20.57,0,0,1,24,2.7a21,21,0,0,1,8.34,1.67,21.24,21.24,0,0,1,11.3,11.29A20.88,20.88,0,0,1,45.3,24a20.65,20.65,0,0,1-1.68,8.29,21.58,21.58,0,0,1-4.55,6.76A21,21,0,0,1,24,45.25Z" transform="translate(-2.75 -2.7)"/></svg>